<?xml version="1.0" encoding="UTF-8"?>
<!-- Generator: Adobe Illustrator 18.1.0, SVG Export Plug-In . SVG Version: 6.00 Build 0)  -->
<!DOCTYPE svg PUBLIC "-//W3C//DTD SVG 1.1//EN" "http://www.w3.org/Graphics/SVG/1.1/DTD/svg11.dtd">
<svg version="1.1" id="Layer_1" xmlns:sketch="http://www.bohemiancoding.com/sketch/ns" xmlns="http://www.w3.org/2000/svg" xmlns:xlink="http://www.w3.org/1999/xlink" x="0px" y="0px" viewBox="-174.2 452.9 500.1 73.1" enable-background="new -174.2 452.9 500.1 73.1" xml:space="preserve">
<g id="homepage" sketch:type="MSPage">
	<g id="Home" transform="translate(-83.000000, -19.000000)" sketch:type="MSArtboardGroup">
		<g id="menu-button-hambuger" sketch:type="MSLayerGroup">
			<g id="ultimaker--2" transform="translate(83.000000, 19.037383)" sketch:type="MSShapeGroup">
				<path id="Fill-1" fill="#000000" d="M87.4,525.4c-3,0-5.7-1.7-6.7-4.7l-12-33.9c-2.3-1.3-3.7-3.7-3.7-6.3c0-4,3-7,7-7      s7.7,2.7,9,6.3l13,36.3c1.3,3.7-0.7,7.7-4.3,9C89,525,88.4,525.4,87.4,525.4"/>
				<path id="Fill-2" fill="#000000" d="M54.4,525c-1,0-1.7-0.3-2.7-0.7c-3.7-1.3-5.3-5.7-3.7-9.3l15-35.9c1.3-3.7,5-6,9-6s7,3,7,7      c0,2.7-1.7,5-4,6.3l-14.3,34.3C59.8,523.4,57.1,525,54.4,525"/>
				<path id="Fill-3" fill="#000000" d="M21.5,525.4c-0.7,0-1.7,0-2.3-0.3c-3.7-1.3-5.3-5.3-4.3-9l13-36.3c1.3-3.7,5-6.3,9-6.3      s7,3,7,7c0,2.7-1.7,5-3.7,6.3l-12,33.9C27.2,523.4,24.5,525.4,21.5,525.4"/>
				<path id="Fill-4" fill="#000000" d="M54.4,525c-2.7,0-5.3-1.7-6.3-4.3l-14.3-34.3c-2.3-1-4-3.7-4-6.3c0-4,3-7,7-7s7.7,2.3,9,6      l15,35.9c1.3,3.7-0.3,7.7-3.7,9.3C56.4,525,55.4,525,54.4,525"/>
				<path id="Fill-5" fill="#000000" d="M35.5,482.8h-14c-2.7,0-4.7-2-4.7-4.7s2-4.7,4.7-4.7h14c2.7,0,4.7,2,4.7,4.7      C40.1,480.8,38.1,482.8,35.5,482.8"/>
				<path id="Fill-6" fill="#000000" d="M-157.1,461.2c0-4.7,3-8,8-8c4.7,0,8,3.3,8,8v38.3c0,9.6,5.3,13.6,14.3,13.6      s14.3-4.3,14.3-13.6v-38.3c0-4.7,3-8,8-8c4.7,0,8,3.3,8,8v36.9c0,19.3-11.6,27.9-29.9,27.9s-29.9-8.6-29.9-27.9v-36.9"/>
				<path id="Fill-7" fill="#000000" d="M-79.3,460.5c0-4.7,2.7-7,7-7s7,2.3,7,7v58.2c0,4.7-2.7,7-7,7s-7-2.3-7-7V460.5"/>
				<path id="Fill-8" fill="#000000" d="M-10.8,479.5c0-3.7,1.7-7,7-7s7,3.3,7,7v38.9c0,3.7-1.7,7-7,7s-7-3.3-7-7V479.5L-10.8,479.5      z M-3.8,452.9c4,0,7.3,3.3,7.3,7.3s-3.3,7.3-7.3,7.3s-7.3-3.3-7.3-7.3S-7.8,452.9-3.8,452.9L-3.8,452.9z"/>
				<path id="Fill-9" fill="#000000" d="M182.5,507.8v10.6c0,4.7-2.7,7-7,7s-7-2.3-7-7v-58.2c0-4.7,2.7-7,7-7s7,2.3,7,7V507.8      L182.5,507.8z M186.2,495.1c0-4,2.3-6.3,2.3-6.3l12.3-13.6c1.3-1.7,3.3-2.7,5.3-2.7c3.3,0,6.7,2.7,6.7,6.3c0,2.7-1,3.3-2,4.7      l-10.3,11l14.6,19.6c0.3,0.7,1.3,2.3,1.3,4.7c0,3.7-3,7-6.7,7c-3.3,0-5.3-1.7-6.3-3.3l-13.3-19      C190.2,503.4,186.2,499.4,186.2,495.1L186.2,495.1z"/>
				<path id="Fill-10" fill="#000000" d="M-149.5,462.8h-20c-2.7,0-4.7-2-4.7-4.7s2-4.7,4.7-4.7h20c2.7,0,4.7,2,4.7,4.7      S-146.8,462.8-149.5,462.8"/>
				<path id="Fill-11" fill="#000000" d="M-73,462.8h-7.7c-2.7,0-4.7-2-4.7-4.7s2-4.7,4.7-4.7h7.7c2.7,0,4.7,2,4.7,4.7      S-70.3,462.8-73,462.8"/>
				<path id="Fill-12" fill="#000000" d="M-40.4,483.1H-48c-2.7,0-4.7-2-4.7-4.7s2-4.7,4.7-4.7h7.7c2.7,0,4.7,2,4.7,4.7      C-35.7,481.1-37.7,483.1-40.4,483.1"/>
				<path id="Fill-13" fill="#000000" d="M174.2,462.8h-7.7c-2.7,0-4.7-2-4.7-4.7s2-4.7,4.7-4.7h7.7c2.7,0,4.7,2,4.7,4.7      S176.9,462.8,174.2,462.8"/>
				<path id="Fill-14" fill="#000000" d="M268.7,501.8h-19c-2.3,0-4.3-2-4.3-4.3s2-4.3,4.3-4.3h19c2.3,0,4.3,2,4.3,4.3      C272.7,499.8,271,501.8,268.7,501.8"/>
				<path id="Fill-15" fill="#000000" d="M-97.3,525.7h-4.7c-2.7,0-4.7-2-4.7-4.7v-20.3c0-2.7,2-4.7,4.7-4.7s4.7,2,4.7,4.7v15.6      c2.7,0,4.7,2,4.7,4.7S-94.6,525.7-97.3,525.7"/>
				<path id="Fill-16" fill="#000000" d="M-33.7,513.1v5.7c0,4.7-2.7,7-7,7s-7-2.3-7-7v-53.9c0-4.7,2.7-7,7-7s7,2.3,7,7v8.6h4.3      c4,0,6.3,1.3,6.3,4.7s-2.3,4.7-6.3,4.7h-4.3V513.1"/>
				<path id="Fill-17" fill="#000000" d="M304.6,507.8v10.6c0,4.7-2.7,7-7,7s-7-2.3-7-7v-38.9c0-4.7,2.7-7,7-7s7,2.3,7,7V507.8"/>
				<path id="Fill-18" fill="#000000" d="M296.3,481.8h-7.7c-2.7,0-4.7-2-4.7-4.7s2-4.7,4.7-4.7h7.7c2.7,0,4.7,2,4.7,4.7      C300.9,479.8,299,481.8,296.3,481.8"/>
				<path id="Fill-19" fill="#000000" d="M299.3,493.1c-1.3,0-3-0.7-3.7-2c-1.7-2-1-5,1-6.7l11.6-9c0.7-0.7,1.7-1,3-1h10      c2.7,0,4.7,2,4.7,4.7s-2,4.7-4.7,4.7h-8.6l-10.6,8C301.3,492.8,300.3,493.1,299.3,493.1"/>
				<path id="Fill-20" fill="#000000" d="M318.9,484.5h-8c-4,0-7-1.3-7-5c0-4,3-7,7-7h8c4,0,7,3,7,7      C325.9,483.1,322.9,484.5,318.9,484.5"/>
				<path id="Fill-21" fill="#000000" d="M152.2,510.7v-23.6c0-10.3-10.3-13.6-28.6-13.6l-12.3,2c-3,0.7-5.7,2.3-5.7,5.7      c0,2.7,2,5.7,5.7,5l13.3-2h4.7c4.7,0,9,0.7,9,4.7v17.3c0,5.3-4.7,10.3-12.3,10.3c-4.7,0-7.7-2.7-7.7-5.7c0-4.3,3.3-6,9-7      c0,0,4-0.7,3-5s-6.3-3.7-6.3-3.7c-10.6,1.3-19.6,4.7-19.6,16.3c0,9,8,14.3,16,14.3c7.3,0,13.6-2,19.3-8.3      c0.3,4.3,2.3,8.3,8.3,8.3c3.3,0,6.3-2.3,6.3-5.3C153.6,518.1,152.2,516.7,152.2,510.7"/>
				<path id="Fill-22" fill="#000000" d="M248.7,501.8h22c4.7,0,6-1.3,6-6c0-11.6-9.3-23.3-25.3-23.3c-16.6,0-26.6,11-26.6,27.6      c0,12.3,7.3,25.6,26.9,25.6l15.3-2c3.3-0.7,6.3-3,6-7c-0.3-2.7-2.3-5-6-4.3l-15.3,2.3l0,0c-8.3,0-13-5.3-13-13      c0,0-2.3-19.3,12.6-19.3c6.3,0,11,4.7,12,11.3h-12.6L248.7,501.8"/>
			</g>
		</g>
	</g>
</g>
</svg>
