<?xml version="1.0" encoding="UTF-8"?>
<svg width="800px" height="320px" viewBox="0 0 800 320" version="1.1" xmlns="http://www.w3.org/2000/svg" xmlns:xlink="http://www.w3.org/1999/xlink" style="background: #000000;">
    <!-- Generator: Sketch 49.2 (51160) - http://www.bohemiancoding.com/sketch -->
    <title>Splashscreen</title>
    <desc>Created with Sketch.</desc>
    <defs></defs>
    <g id="umsplash" stroke="none" stroke-width="1" fill="none" fill-rule="evenodd">
        <rect width="100%" height="100%" fill="#000000"/>
        <path d="M233.926678,185.192257 C236.436285,185.192257 238.468328,187.218827 238.468328,189.72296 C238.468328,192.227094 236.436285,194.265979 233.926678,194.265979 L229.380923,194.265979 C226.871315,194.265979 224.840641,192.227094 224.840641,189.72296 L224.840641,189.134557 C219.903529,192.788129 213.166999,194.554707 205.057985,194.554707 C187.442842,194.554707 176.187924,186.344432 176.187924,168.073835 L176.187924,134.373396 L164.540282,134.373396 C162.033411,134.373396 160,132.349564 160,129.842693 C160,127.324876 162.033411,125.299675 164.540282,125.299675 L183.604538,125.299675 C183.997263,125.299675 184.374936,125.368094 184.740293,125.465249 C188.770169,125.874394 191.315354,128.763042 191.315354,132.93523 L191.315354,169.279377 C191.315354,178.324363 196.387935,182.376133 205.057985,182.376133 C213.728035,182.376133 218.803353,178.324363 218.803353,169.279377 L218.803353,132.93523 C218.803353,128.420948 221.753578,125.368094 226.366383,125.368094 C230.976452,125.368094 233.929414,128.420948 233.929414,132.93523 L233.929414,168.073835 C233.929414,168.648555 233.884258,169.169907 233.863732,169.718627 C233.886995,169.907463 233.919836,170.086721 233.919836,170.279662 L233.926678,185.192257 Z M533.411483,183.292947 C533.871258,183.949769 534.793546,185.411198 534.793546,187.62934 C534.793546,191.051656 532.026683,194.182508 528.429215,194.182508 C525.109527,194.182508 523.356634,192.529506 522.344033,191.051656 L509.611266,173.056104 C509.611266,173.056104 506.001482,169.113804 506.001482,165.038771 C506.001482,161.110155 508.148469,159.139689 508.148469,159.139689 L519.853583,146.126404 C521.234278,144.648555 522.98854,143.540168 525.016478,143.540168 C528.063858,143.540168 531.37944,146.223559 531.37944,149.630823 C531.37944,152.03917 530.551571,152.776726 529.351502,154.061634 L519.391071,164.490051 L533.411483,183.292947 Z M495.60317,125.368094 C499.660414,125.368094 502.335595,127.680655 502.335595,132.114203 L502.335595,187.451451 C502.335595,191.874052 499.660414,194.182508 495.60317,194.182508 C491.543189,194.182508 488.870745,191.874052 488.870745,187.451451 L488.870745,134.373396 L487.191744,134.373396 C484.68761,134.373396 482.654199,132.349564 482.654199,129.842693 C482.654199,127.324876 484.68761,125.299675 487.191744,125.299675 L494.403102,125.299675 C494.723302,125.299675 495.031188,125.325674 495.330863,125.395462 C495.423912,125.395462 495.507384,125.368094 495.60317,125.368094 Z M258.138776,125.409145 C261.957922,125.561035 264.464793,127.829808 264.464793,132.114203 L264.464793,187.451451 C264.464793,191.874052 261.789612,194.182508 257.732368,194.182508 C253.672387,194.182508 250.997206,191.874052 250.997206,187.451451 L250.997206,134.373396 L249.970922,134.373396 C247.461315,134.373396 245.427904,132.349564 245.427904,129.842693 C245.427904,127.324876 247.461315,125.299675 249.970922,125.299675 L257.176806,125.299675 C257.507954,125.299675 257.828154,125.342095 258.138776,125.409145 Z M323.459718,143.540168 C328.717031,143.540168 330.192143,146.675124 330.192143,150.272593 L330.192143,187.451451 C330.192143,191.051656 328.717031,194.182508 323.459718,194.182508 C318.199669,194.182508 316.724557,191.051656 316.724557,187.451451 L316.724557,150.272593 C316.724557,146.675124 318.199669,143.540168 323.459718,143.540168 Z M323.459718,125 C327.332231,125 330.467187,128.145903 330.467187,132.018416 C330.467187,135.890929 327.332231,139.025885 323.459718,139.025885 C319.584469,139.025885 316.449513,135.890929 316.449513,132.018416 C316.449513,128.145903 319.584469,125 323.459718,125 Z M417.404413,184.976053 C418.640059,188.424369 416.837904,192.240778 413.377274,193.472319 C412.63698,193.744626 411.87753,193.870517 411.1345,193.870517 C408.403216,193.870517 405.842979,192.173727 404.870061,189.450653 L396.059068,164.792463 L385.667598,189.516335 L385.64023,189.586122 C385.493814,189.941901 385.314556,190.270312 385.112036,190.572724 C385.058669,190.665773 384.994355,190.735561 384.935515,190.817663 C384.767205,191.063972 384.58521,191.296596 384.386795,191.503221 C384.304692,191.599008 384.215748,191.678374 384.128172,191.775529 C383.906494,191.980786 383.67387,192.173727 383.433035,192.350248 C383.356406,192.406352 383.289355,192.472034 383.211358,192.529506 C382.882947,192.748446 382.535378,192.924967 382.174126,193.090541 C382.142654,193.104225 382.118023,193.11654 382.08655,193.130224 C382.019499,193.156223 381.949712,193.169907 381.882661,193.200011 C381.599407,193.309482 381.313416,193.388848 381.015109,193.458635 C380.894692,193.486003 380.777011,193.528422 380.656594,193.542106 C380.287132,193.609157 379.908091,193.651576 379.526313,193.651576 C379.520839,193.651576 379.515366,193.651576 379.509892,193.651576 C379.507155,193.651576 379.507155,193.651576 379.507155,193.651576 C379.504419,193.651576 379.501682,193.651576 379.501682,193.651576 C379.498945,193.651576 379.493472,193.651576 379.485261,193.651576 C379.103484,193.651576 378.727179,193.609157 378.357717,193.542106 C378.2373,193.528422 378.119619,193.486003 377.997833,193.472319 C377.700895,193.388848 377.412167,193.309482 377.128913,193.200011 C377.061862,193.169907 376.994812,193.156223 376.927761,193.130224 C376.896288,193.11654 376.871657,193.104225 376.840185,193.090541 C376.478933,192.924967 376.131364,192.748446 375.800217,192.529506 C375.727693,192.472034 375.659274,192.420035 375.58675,192.362563 C375.340441,192.173727 375.10508,191.980786 374.883403,191.775529 C374.795826,191.678374 374.712355,191.599008 374.627516,191.503221 C374.426364,191.296596 374.241633,191.051656 374.06648,190.805348 C374.014482,190.735561 373.952905,190.65209 373.905012,190.586407 C373.702492,190.270312 373.520497,189.941901 373.371344,189.586122 L362.949769,164.792463 L354.138776,189.450653 C353.165859,192.173727 350.602885,193.870517 347.8716,193.870517 C347.128571,193.870517 346.374594,193.744626 345.634301,193.486003 C342.170933,192.240778 340.36741,188.436684 341.604424,184.976053 L352.871657,153.447232 L347.8716,153.447232 C345.36473,153.447232 343.331319,151.408347 343.331319,148.904213 C343.331319,146.40008 345.36473,144.359827 347.8716,144.359827 L361.247506,144.359827 C361.614231,144.359827 361.964536,144.41593 362.306631,144.499401 C362.421575,144.499401 362.533782,144.469297 362.648726,144.469297 C362.669251,144.469297 362.685672,144.482981 362.704829,144.482981 C366.529449,144.499401 369.950396,146.824277 371.307828,150.315012 L379.507155,169.828097 L387.706483,150.328696 C389.05981,146.824277 392.498546,144.482981 396.334113,144.469297 C396.342323,144.469297 396.350533,144.469297 396.360112,144.469297 C400.28736,144.469297 403.801357,146.907748 405.099949,150.547637 L417.404413,184.976053 Z M565.907748,171.401733 L565.832488,171.401733 L565.837961,171.372997 C564.074121,170.920064 562.764582,169.332744 562.764582,167.433434 C562.764582,165.17424 564.595473,163.340612 566.850562,163.340612 L579.944581,163.340612 C579.092081,157.319745 574.54222,152.955984 568.64998,152.955984 C554.201266,152.955984 556.382462,171.401733 556.382462,171.401733 C556.382462,178.502252 560.992531,183.663778 568.833343,183.663778 L568.855237,183.633674 L583.65973,181.362164 C587.246251,180.828496 589.159245,183.086322 589.423342,185.590456 C589.811962,189.244028 586.823422,191.556588 583.65973,192.129939 L568.833343,194.182508 C550.016763,194.182508 542.912139,181.459319 542.912139,169.744626 C542.912139,154.061634 552.412794,143.540168 568.372199,143.540168 C583.87046,143.540168 592.721136,154.52962 592.721136,165.586122 C592.721136,170.196191 591.340441,171.401733 586.817949,171.401733 L585.884714,171.401733 C585.580934,171.468784 585.267575,171.524887 584.941901,171.524887 L566.850562,171.524887 C566.524887,171.524887 566.212897,171.468784 565.907748,171.401733 Z M473.278066,179.98147 C473.278066,185.604139 474.662866,186.902731 474.662866,189.025087 C474.662866,192.064257 471.802953,194.182508 468.572211,194.182508 C462.76481,194.182508 460.827185,190.489253 460.642454,186.344432 C455.387878,192.160043 449.297223,194.182508 442.193968,194.182508 C434.539255,194.182508 426.973488,188.9293 426.973488,180.446719 C426.973488,169.279377 435.461543,166.144421 445.791436,164.941616 C445.791436,164.941616 450.831176,164.310793 451.910827,168.350248 C452.990478,172.374651 449.112492,173.15189 449.112492,173.15189 C443.487086,173.986601 440.442443,175.739495 440.442443,179.788528 C440.442443,182.840014 443.302355,185.331832 447.91516,185.331832 C455.292092,185.331832 459.811848,180.528821 459.811848,175.546553 L459.811848,159.043902 C459.811848,155.171389 455.847654,154.59667 451.325161,154.59667 L446.739723,154.59667 L433.989167,156.635555 C430.401277,157.170591 428.619648,154.280575 428.619648,151.776441 C428.619648,148.508752 431.190832,146.987114 433.989167,146.412395 L445.739438,144.482981 C463.510576,144.482981 473.278066,147.701408 473.278066,157.375848 L473.278066,179.98147 Z M633.345573,143.333542 C637.022407,143.333542 640,146.319345 640,149.986601 C640,153.666173 637.022407,154.897714 633.345573,154.897714 L626.708934,154.897714 L619.568733,160.289127 L619.568733,187.451451 C619.568733,191.874052 616.890815,194.182508 612.833571,194.182508 C608.776327,194.182508 606.101146,191.874052 606.101146,187.451451 L606.101146,152.544102 L604.424882,152.544102 C601.918011,152.544102 599.887337,150.517532 599.887337,148.001083 C599.887337,145.495581 601.918011,143.473117 604.424882,143.473117 L611.633502,143.473117 C611.950966,143.473117 612.261588,143.500485 612.561263,143.566167 C612.654313,143.566167 612.737784,143.540168 612.833571,143.540168 C616.176521,143.540168 618.554764,145.127487 619.297793,148.166657 C620.096927,145.386111 622.631165,143.333542 625.667598,143.333542 L633.345573,143.333542 Z M298.91784,144.74571 C302.883403,144.74571 305.003022,145.948515 305.003022,149.165574 C305.003022,152.394948 302.883403,153.596385 298.91784,153.596385 L294.860596,153.596385 L294.860596,187.726495 C294.860596,192.160043 292.182679,194.45892 288.125435,194.45892 C284.068191,194.45892 281.39301,192.160043 281.39301,187.726495 L281.39301,153.84543 L281.165859,153.84543 C278.658989,153.84543 276.625577,151.806545 276.625577,149.302412 C276.625577,146.798278 278.658989,144.758025 281.165859,144.758025 L281.39301,144.758025 L281.39301,136.535435 C281.39301,132.114203 284.068191,129.80301 288.128172,129.80301 C292.182679,129.80301 294.860596,132.114203 294.860596,136.535435 L294.860596,144.74571 L298.91784,144.74571 Z" id="Combined-Shape" fill="#FFFFFF"></path>
    </g>
</svg>
